<svg xmlns="http://www.w3.org/2000/svg" xmlns:xlink="http://www.w3.org/1999/xlink" id="Ebene_1" width="390" height="400" x="0" y="0" enable-background="new 0 0 390 400" version="1.1" viewBox="0 0 390 400" xml:space="preserve"><g id="microformat-logo"><linearGradient id="SVGID_1_" x1="1.328" x2="2.328" y1="63.286" y2="62.286" gradientTransform="matrix(320 0 0 -320 -415 20321.5)" gradientUnits="userSpaceOnUse"><stop offset=".05" stop-color="#56A231"/><stop offset=".95" stop-color="#3B792D"/></linearGradient><path fill="url(#SVGID_1_)" stroke="#FFF" stroke-width="20" d="M70,70h200c33.137,0,60,26.863,60,60v200 c0,33.137-26.863,60-60,60H70c-33.137,0-60-26.863-60-60V130C10,96.863,36.863,70,70,70z"/><linearGradient id="SVGID_2_" x1="1.581" x2="2.582" y1="62.914" y2="61.914" gradientTransform="matrix(245 0 0 -245 -267.5 15439)" gradientUnits="userSpaceOnUse"><stop offset=".05" stop-color="#72BD2D"/><stop offset=".95" stop-color="#56A231"/></linearGradient><path fill="url(#SVGID_2_)" stroke="#FFF" stroke-width="20" d="M165,25h155c24.854,0,45,20.146,45,45v155 c0,24.854-20.146,45-45,45H165c-24.854,0-45-20.146-45-45V70C120,45.146,140.146,25,165,25z"/><linearGradient id="SVGID_3_" x1="2.157" x2="3.157" y1="62.072" y2="61.072" gradientTransform="matrix(160 0 0 -160 -125 9941.5)" gradientUnits="userSpaceOnUse"><stop offset=".05" stop-color="#9C3"/><stop offset=".95" stop-color="#72BD2D"/></linearGradient><path fill="url(#SVGID_3_)" stroke="#FFF" stroke-width="20" d="M240,10h120c11.045,0,20,8.954,20,20v120 c0,11.046-8.955,20-20,20H240c-11.046,0-20-8.954-20-20V30C220,18.954,228.954,10,240,10z"/></g></svg>